<?xml version="1.0" encoding="UTF-8"?> <svg xmlns="http://www.w3.org/2000/svg" width="2891" height="1410" viewBox="0 0 2891 1410" fill="none"> <g clip-path="url(#clip0)"> <path d="M202.325 1403.72C202.454 1403.81 2723.83 1403.41 2723.83 1403.41C2806.84 1226.35 2806.7 1139.84 2816.15 1038.35C2868.3 477.399 2445.8 391.159 2322.02 367.768C1943.04 296.146 2115.53 -58.223 1127.94 8.26302C1037.43 14.356 824.015 63.553 750.465 95.425C698.878 117.762 504.52 217.711 447.495 386.784C429.484 440.146 425.163 500.39 443.322 567.257C507.594 803.87 340.032 790.27 217.59 903.031C54.1693 1053.52 71.2523 1299.63 202.325 1403.72Z" fill="#EEF5FF"></path> <path d="M1704.25 1403.56H1704.59C1706.63 1403.56 1708.27 1401.89 1708.22 1399.85L1702.72 1161.45L1686.52 1159.55L1700.34 1399.87C1700.45 1401.94 1702.17 1403.56 1704.25 1403.56Z" fill="#B0D4FF"></path> <path d="M1798.67 1403.56H1799.01C1801.05 1403.56 1802.69 1401.89 1802.64 1399.85L1797.14 1161.45L1780.94 1159.55L1794.75 1399.87C1794.87 1401.94 1796.59 1403.56 1798.67 1403.56Z" fill="#5088CB"></path> <path d="M1538.12 1403.56H1537.78C1535.74 1403.56 1534.1 1401.89 1534.15 1399.85L1539.65 1161.45L1555.85 1159.55L1542.04 1399.87C1541.92 1401.94 1540.2 1403.56 1538.12 1403.56Z" fill="#B0D4FF"></path> <path d="M1809.4 1146.66V983.292C1809.4 954.546 1786.1 931.243 1757.35 931.243H1639.65C1610.91 931.243 1587.6 954.546 1587.6 983.292V1152.9L1809.4 1146.66Z" fill="#B0D4FF"></path> <path d="M1566.52 1172.45H1793.77C1802.41 1172.45 1809.4 1165.45 1809.4 1156.82V1146.66H1566.52V1172.45Z" fill="#5088CB"></path> <path d="M1539.28 1172.45H1711.21C1717.6 1172.45 1722.77 1167.28 1722.77 1160.89V1158.21C1722.77 1151.83 1717.6 1146.66 1711.21 1146.66H1539.28C1532.9 1146.66 1527.73 1151.83 1527.73 1158.21V1160.89C1527.73 1167.28 1532.9 1172.45 1539.28 1172.45Z" fill="#CAE5FF"></path> <path d="M1935.46 286.826H1256.92V872.561H1935.46V286.826Z" fill="#5088CB"></path> <path d="M1922.26 296.585H1269.84V860.882H1922.26V296.585Z" fill="#E1ECF7"></path> <path d="M1497.87 542.106H1354.91V363.586L1379.15 341.733H1497.87V542.106Z" fill="white"></path> <path d="M1354.91 363.586H1378.37L1379.15 341.733L1354.91 363.586Z" fill="#B0D4FF"></path> <path d="M1449.28 359.109H1403.5V361.289H1449.28V359.109Z" fill="#B0D4FF"></path> <path d="M1460.05 365.649H1392.73V367.829H1460.05V365.649Z" fill="#B0D4FF"></path> <path d="M1483.62 407.648H1371.83V410.45H1483.62V407.648Z" fill="#B0D4FF"></path> <path d="M1483.62 416.159H1371.83V418.962H1483.62V416.159Z" fill="#B0D4FF"></path> <path d="M1483.62 424.671H1371.83V427.473H1483.62V424.671Z" fill="#B0D4FF"></path> <path d="M1483.62 433.182H1371.83V435.985H1483.62V433.182Z" fill="#B0D4FF"></path> <path d="M1483.62 524.266H1371.83V527.069H1483.62V524.266Z" fill="#B0D4FF"></path> <path d="M1662.95 789.785H1519.98V611.264L1544.23 589.412H1662.95V789.785Z" fill="white"></path> <path d="M1519.98 611.264H1543.45L1544.23 589.412L1519.98 611.264Z" fill="#B0D4FF"></path> <path d="M1614.35 606.788H1568.58V608.968H1614.35V606.788Z" fill="#B0D4FF"></path> <path d="M1625.13 613.327H1557.8V615.507H1625.13V613.327Z" fill="#B0D4FF"></path> <path d="M1648.7 655.327H1536.91V658.13H1648.7V655.327Z" fill="#B0D4FF"></path> <path d="M1648.7 663.838H1536.91V666.641H1648.7V663.838Z" fill="#B0D4FF"></path> <path d="M1648.7 672.35H1536.91V675.153H1648.7V672.35Z" fill="#B0D4FF"></path> <path d="M1648.7 680.862H1536.91V683.664H1648.7V680.862Z" fill="#B0D4FF"></path> <path d="M1648.7 707.051H1536.91V709.853H1648.7V707.051Z" fill="#B0D4FF"></path> <path d="M1648.7 715.562H1536.91V718.365H1648.7V715.562Z" fill="#B0D4FF"></path> <path d="M1648.7 725.432H1536.91V728.235H1648.7V725.432Z" fill="#B0D4FF"></path> <path d="M1743.62 341.733H1664.68V411.329H1743.62V341.733Z" fill="#B0D4FF"></path> <path d="M1700.7 350.018C1700.7 348.109 1702.24 346.562 1704.15 346.562C1706.06 346.562 1707.61 348.109 1707.61 350.018C1707.61 351.927 1706.06 353.475 1704.15 353.475C1702.24 353.475 1700.7 351.928 1700.7 350.018Z" fill="#FFA412"></path> <path d="M1741.14 433.28L1662.38 438.775L1667.23 508.204L1745.98 502.709L1741.14 433.28Z" fill="white"></path> <path d="M1699.16 448.758C1699.03 446.854 1700.46 445.202 1702.37 445.07C1704.27 444.937 1705.92 446.373 1706.05 448.277C1706.19 450.181 1704.75 451.833 1702.85 451.966C1700.94 452.098 1699.29 450.662 1699.16 448.758Z" fill="#B0D4FF"></path> <path d="M1478.79 689.676L1400.04 695.17L1404.88 764.599L1483.63 759.105L1478.79 689.676Z" fill="white"></path> <path d="M1436.83 705.158C1436.7 703.254 1438.13 701.602 1440.04 701.47C1441.94 701.337 1443.59 702.774 1443.72 704.677C1443.86 706.581 1442.42 708.233 1440.52 708.366C1438.61 708.499 1436.96 707.063 1436.83 705.158Z" fill="#B0D4FF"></path> <path d="M1379.66 739.449L1300.72 740.262L1301.44 809.851L1380.38 809.038L1379.66 739.449Z" fill="white"></path> <path d="M1336.89 752.587C1336.87 750.678 1338.41 749.115 1340.31 749.096C1342.22 749.076 1343.79 750.608 1343.81 752.516C1343.83 754.425 1342.29 755.989 1340.39 756.008C1338.48 756.028 1336.91 754.496 1336.89 752.587Z" fill="#B0D4FF"></path> <path d="M1860.63 489.069L1782.92 475.183L1770.68 543.694L1848.39 557.58L1860.63 489.069Z" fill="#EEF6FF"></path> <path d="M1817.15 490.933C1817.44 489.299 1819 488.211 1820.64 488.503C1822.27 488.795 1823.36 490.357 1823.07 491.99C1822.77 493.623 1821.21 494.712 1819.58 494.42C1817.95 494.128 1816.86 492.567 1817.15 490.933Z" fill="#407ABE"></path> <path d="M1618.13 431.816L1539.65 440.311L1547.14 509.503L1625.62 501.009L1618.13 431.816Z" fill="#EEF6FF"></path> <path d="M1576.91 445.762C1576.73 444.112 1577.92 442.629 1579.57 442.451C1581.22 442.272 1582.7 443.465 1582.88 445.116C1583.06 446.766 1581.87 448.249 1580.22 448.427C1578.57 448.605 1577.08 447.412 1576.91 445.762Z" fill="#407ABE"></path> <path d="M1413.17 596.383L1335.96 612.842L1350.47 680.907L1427.68 664.448L1413.17 596.383Z" fill="#BAE8E3"></path> <path d="M1374.93 616.281C1373.54 615.378 1373.14 613.517 1374.05 612.124C1374.95 610.731 1376.81 610.334 1378.21 611.238C1379.6 612.141 1380 614.002 1379.09 615.395C1378.19 616.787 1376.33 617.184 1374.93 616.281Z" fill="#FFA412"></path> <path d="M1620.19 411.329H1545.06V360.846L1565.86 341.733H1620.19V411.329Z" fill="white"></path> <path d="M1544.65 360.846H1565.18L1565.86 341.733L1544.65 360.846Z" fill="#B0D4FF"></path> <path d="M1582.9 348.171C1582.9 346.807 1584.01 345.701 1585.37 345.701C1586.74 345.701 1587.84 346.807 1587.84 348.171C1587.84 349.536 1586.74 350.642 1585.37 350.642C1584.01 350.642 1582.9 349.536 1582.9 348.171Z" fill="#B0D4FF"></path> <path d="M1839.73 824.583H1764.59V774.1L1785.39 754.987H1839.73V824.583Z" fill="white"></path> <path d="M1764.19 774.1H1784.71L1785.39 754.987L1764.19 774.1Z" fill="#B0D4FF"></path> <path d="M1802.43 761.425C1802.43 760.061 1803.54 758.955 1804.9 758.955C1806.27 758.955 1807.37 760.061 1807.37 761.425C1807.37 762.789 1806.27 763.896 1804.9 763.896C1803.54 763.896 1802.43 762.789 1802.43 761.425Z" fill="#B0D4FF"></path> <path d="M1874 724.397H1798.87V673.913L1819.67 654.8H1874V724.397Z" fill="white"></path> <path d="M1798.46 673.913H1818.99L1819.67 654.8L1798.46 673.913Z" fill="#B0D4FF"></path> <path d="M1836.71 661.239C1836.71 659.875 1837.81 658.769 1839.18 658.769C1840.54 658.769 1841.65 659.875 1841.65 661.239C1841.65 662.603 1840.54 663.709 1839.18 663.709C1837.81 663.709 1836.71 662.603 1836.71 661.239Z" fill="#B0D4FF"></path> <path d="M1774.85 724.397H1699.71V673.913L1720.51 654.8H1774.85V724.397Z" fill="#BAE8E3"></path> <path d="M1699.31 673.913H1719.83L1720.51 654.8L1699.31 673.913Z" fill="#A1D6CE"></path> <path d="M1737.55 661.239C1737.55 659.875 1738.66 658.769 1740.02 658.769C1741.39 658.769 1742.49 659.875 1742.49 661.239C1742.49 662.603 1741.39 663.709 1740.02 663.709C1738.66 663.709 1737.55 662.603 1737.55 661.239Z" fill="#F99043"></path> <path d="M1895.21 393.908H1820.07V343.424L1840.87 324.311H1895.21V393.908Z" fill="#BAE8E3"></path> <path d="M1819.67 343.424H1840.19L1840.87 324.311L1819.67 343.424Z" fill="#A1D6CE"></path> <path d="M1857.91 330.749C1857.91 329.385 1859.02 328.279 1860.38 328.279C1861.75 328.279 1862.85 329.385 1862.85 330.749C1862.85 332.113 1861.75 333.219 1860.38 333.219C1859.02 333.219 1857.91 332.114 1857.91 330.749Z" fill="#F99043"></path> <path d="M1152.19 272.658H1009.27C1002.71 272.658 997.341 267.29 997.341 260.729V122.785C997.341 116.224 1002.71 110.856 1009.27 110.856H1152.19C1158.75 110.856 1164.12 116.224 1164.12 122.785V260.729C1164.12 267.29 1158.75 272.658 1152.19 272.658Z" fill="#C0D8FB"></path> <path d="M1146 265.649H1015.46C1009.47 265.649 1004.57 260.746 1004.57 254.753V128.761C1004.57 122.768 1009.47 117.865 1015.46 117.865H1146C1151.99 117.865 1156.9 122.768 1156.9 128.761V254.753C1156.89 260.746 1151.99 265.649 1146 265.649Z" fill="#DFEBFD"></path> <path d="M1077.28 132.633C1077.28 130.725 1078.82 129.178 1080.73 129.178C1082.64 129.178 1084.19 130.724 1084.19 132.633C1084.19 134.541 1082.64 136.087 1080.73 136.087C1078.82 136.087 1077.28 134.54 1077.28 132.633Z" fill="#2B4360"></path> <path d="M1105.15 137.515C1106.08 135.848 1108.18 135.246 1109.85 136.174C1111.52 137.101 1112.12 139.204 1111.19 140.872C1110.26 142.54 1108.16 143.141 1106.49 142.214C1104.83 141.286 1104.23 139.183 1105.15 137.515Z" fill="#2B4360"></path> <path d="M1129.04 156.49C1130.64 155.455 1132.78 155.917 1133.81 157.52C1134.85 159.124 1134.38 161.262 1132.78 162.296C1131.18 163.33 1129.04 162.869 1128.01 161.266C1126.97 159.662 1127.43 157.524 1129.04 156.49Z" fill="#2B4360"></path> <path d="M1140.87 185.858C1142.77 185.858 1144.32 187.405 1144.32 189.313C1144.32 191.221 1142.77 192.768 1140.87 192.768C1138.96 192.768 1137.41 191.221 1137.41 189.313C1137.41 187.405 1138.96 185.858 1140.87 185.858Z" fill="#2B4360"></path> <path d="M1134.83 219.94C1136.18 221.289 1136.18 223.477 1134.83 224.826C1133.48 226.176 1131.29 226.176 1129.94 224.826C1128.59 223.477 1128.59 221.289 1129.94 219.94C1131.29 218.591 1133.48 218.591 1134.83 219.94Z" fill="#2B4360"></path> <path d="M1113.13 241.691C1114.48 243.04 1114.48 245.228 1113.13 246.577C1111.78 247.927 1109.59 247.927 1108.25 246.577C1106.9 245.228 1106.9 243.04 1108.25 241.691C1109.59 240.342 1111.78 240.342 1113.13 241.691Z" fill="#2B4360"></path> <path d="M1077.28 252.902C1077.28 250.994 1078.82 249.447 1080.73 249.447C1082.64 249.447 1084.19 250.993 1084.19 252.902C1084.19 254.81 1082.64 256.357 1080.73 256.357C1078.82 256.357 1077.28 254.81 1077.28 252.902Z" fill="#2B4360"></path> <path d="M1056.2 137.515C1055.27 135.848 1053.17 135.246 1051.5 136.174C1049.83 137.101 1049.23 139.204 1050.16 140.872C1051.09 142.54 1053.19 143.141 1054.86 142.214C1056.52 141.286 1057.13 139.183 1056.2 137.515Z" fill="#2B4360"></path> <path d="M1032.31 156.49C1030.71 155.455 1028.57 155.917 1027.54 157.52C1026.5 159.124 1026.97 161.262 1028.57 162.296C1030.17 163.33 1032.31 162.869 1033.34 161.266C1034.38 159.662 1033.92 157.524 1032.31 156.49Z" fill="#2B4360"></path> <path d="M1020.49 185.858C1018.58 185.858 1017.03 187.405 1017.03 189.313C1017.03 191.221 1018.58 192.768 1020.49 192.768C1022.39 192.768 1023.94 191.221 1023.94 189.313C1023.94 187.405 1022.39 185.858 1020.49 185.858Z" fill="#2B4360"></path> <path d="M1026.53 219.94C1025.18 221.289 1025.18 223.477 1026.53 224.826C1027.88 226.176 1030.06 226.176 1031.41 224.826C1032.76 223.477 1032.76 221.289 1031.41 219.94C1030.06 218.591 1027.88 218.591 1026.53 219.94Z" fill="#2B4360"></path> <path d="M1048.22 241.691C1046.87 243.04 1046.87 245.228 1048.22 246.577C1049.57 247.927 1051.76 247.927 1053.11 246.577C1054.46 245.228 1054.46 243.04 1053.11 241.691C1051.76 240.342 1049.57 240.342 1048.22 241.691Z" fill="#2B4360"></path> <path d="M1079.8 189.313C1079.8 187.405 1081.35 185.858 1083.25 185.858C1085.16 185.858 1086.71 187.405 1086.71 189.313C1086.71 191.221 1085.16 192.768 1083.25 192.768C1081.35 192.767 1079.8 191.22 1079.8 189.313Z" fill="#2B4360"></path> <path d="M1083.73 146.153H1082.78V189.312H1083.73V146.153Z" fill="#2B4360"></path> <path d="M1104.82 170.157L1081.94 188.123L1083.69 190.348L1106.57 172.383L1104.82 170.157Z" fill="#2B4360"></path> <path d="M2032.03 1395.03C2031.35 1404.31 2018.25 1404.41 2003.39 1402.69C1988.53 1400.96 1992.48 1404.73 1971.67 1405.02C1950.87 1405.3 1943.69 1398.43 1942.69 1395.45C1941.79 1392.82 1951.81 1390.6 1962.53 1387.98C1963.88 1387.66 1965.23 1387.32 1966.59 1386.98C1978.68 1383.91 1986.68 1374.86 1997.02 1366.96C2006.82 1359.47 2019.46 1332.39 2019.46 1332.39L2047.88 1331.11C2047.88 1331.11 2035.91 1355.38 2031.41 1365.85C2028.77 1372.01 2029.9 1379.57 2031.05 1385.38C2031.66 1388.53 2032.27 1391.76 2032.03 1395.03Z" fill="#FFB27D"></path> <path d="M2003.39 1402.69C1988.53 1400.97 1992.48 1404.73 1971.67 1405.02C1950.87 1405.31 1943.69 1398.43 1942.69 1395.45C1941.79 1392.82 1951.81 1390.6 1962.53 1387.99L1962.66 1388.18C1962.66 1388.18 1976.06 1395.37 1993.19 1393.65C2007.16 1392.25 2021.41 1386.42 2031.04 1385.38C2031.66 1388.53 2032.27 1391.76 2032.03 1395.03C2031.35 1404.31 2018.25 1404.41 2003.39 1402.69Z" fill="#163560"></path> <path d="M2228.34 1396.96C2227.67 1406.24 2214.57 1406.35 2199.71 1404.64C2184.85 1402.94 2188.8 1406.69 2167.99 1407C2147.19 1407.31 2140.01 1400.44 2139 1397.47C2138.1 1394.83 2148.12 1392.6 2158.83 1389.98C2160.18 1389.66 2161.54 1389.32 2162.89 1388.97C2174.97 1385.89 2182.97 1376.83 2193.3 1368.92C2203.09 1361.43 2193.31 1317.06 2193.31 1317.06L2224.58 1314.02C2224.58 1314.02 2223.08 1351.37 2223.1 1368.36C2223.11 1375.06 2226.19 1381.5 2227.35 1387.3C2227.96 1390.46 2228.58 1393.69 2228.34 1396.96Z" fill="#FFB27D"></path> <path d="M2199.71 1404.64C2184.85 1402.93 2188.8 1406.69 2167.99 1407C2147.19 1407.31 2140.01 1400.44 2139 1397.47C2138.1 1394.83 2148.12 1392.6 2158.83 1389.98L2158.96 1390.18C2158.96 1390.18 2172.37 1397.36 2189.5 1395.62C2203.47 1394.2 2217.71 1388.36 2227.34 1387.3C2227.96 1390.46 2228.58 1393.69 2228.34 1396.96C2227.67 1406.24 2214.57 1406.35 2199.71 1404.64Z" fill="#163560"></path> <path d="M2137.1 630.227C2131.72 608.091 2139.52 597.782 2146.56 592.293C2149.9 584.146 2153.71 578.273 2157.6 576.059C2164.71 572.02 2173.22 571.58 2179.18 571.932C2177.64 570.349 2174.63 569.772 2174.63 569.772C2178.32 569.223 2186.56 572.886 2186.56 572.886C2237.94 553.092 2246.01 628.732 2244.93 646.306C2243.86 663.877 2244 684.574 2270.73 698.419C2321.73 724.837 2253.78 824.392 2253.78 824.392C2255.08 810.192 2189.55 735.25 2155.37 712.807C2147.05 700.555 2144.09 678.913 2143.87 677.209C2145.31 694.369 2148.24 703.995 2150.86 709.415C2135.28 695.075 2132.98 660.641 2137.1 630.227Z" fill="#96322A"></path> <path d="M2157.39 713.923C2157.22 714 2173.9 722.659 2186.44 719.229C2198.24 716.011 2205.95 700.712 2205.79 700.678C2200.79 699.686 2199.35 692.819 2199.46 663.311L2197.2 663.756L2159.22 671.277C2159.22 671.277 2160.08 683.231 2160.11 694.491C2160.13 703.947 2159.56 712.914 2157.39 713.923Z" fill="#FFB27D"></path> <path d="M2159.22 671.278C2159.22 671.278 2160.08 683.232 2160.11 694.492C2181.36 693.893 2192.59 674.504 2197.2 663.757L2159.22 671.278Z" fill="#ED975D"></path> <path d="M2004.68 1347.44C2002.82 1353.28 2007 1359.3 2013.12 1359.58L2027.96 1360.28L2043.66 1360.76C2047.59 1360.88 2051.34 1359.16 2053.82 1356.12C2066.36 1340.75 2104.93 1289.5 2128.33 1215.05C2128.99 1212.97 2129.68 1210.85 2130.42 1208.71C2145.87 1163.65 2177.91 1107.1 2194.79 1055.9C2197.48 1047.75 2199.89 1040.07 2202.05 1032.81C2202.75 1030.48 2203.42 1028.2 2204.06 1025.95C2216.51 982.717 2220.11 954.335 2223.43 924.01L2101.52 924.986C2101.52 924.987 2075.86 1124.46 2004.68 1347.44Z" fill="#2A4E96"></path> <path d="M2118.59 854.939C2118.9 912.949 2110.08 937.837 2110.08 937.837C2110.08 937.837 2162.27 964.356 2224.31 944.834C2225.04 944.605 2275.67 933.049 2275.67 933.049C2274.63 930.7 2265.4 891.606 2264.39 889.452C2251.29 861.326 2241.35 848.993 2239.79 840.345C2236.91 824.202 2236.85 807.498 2238.29 791.744C2242.07 750.041 2253.33 715.421 2253.33 715.421C2236.43 711.575 2220.6 704.819 2203 698.221C2198.96 703.26 2186.59 708.533 2175.86 708.291C2163.5 708.019 2159.49 702.729 2160.13 696.953C2146.96 704.28 2136.46 711.202 2136.46 711.202C2125.27 730.642 2102.57 749.521 2100.92 779.342C2100.52 786.676 2118.58 853.314 2118.59 854.939Z" fill="white"></path> <path d="M2223.43 861.405C2228.76 868.948 2238.97 914.788 2264.39 920.551C2251.29 887.879 2241.35 873.554 2239.8 863.509C2236.91 844.758 2236.85 825.355 2238.29 807.055C2229.78 792.143 2223.43 781.917 2223.43 781.917C2222.76 779.505 2209.91 739.762 2205.79 775.287C2201.68 810.822 2217.48 852.968 2223.43 861.405Z" fill="#5F9AA8"></path> <path d="M2152.12 681.94C2152.12 681.94 2202.41 682.77 2202.44 651.445C2202.48 620.12 2208.99 599.131 2176.88 597.277C2144.78 595.423 2138.53 607.369 2135.97 617.821C2133.42 628.275 2139.04 680.917 2152.12 681.94Z" fill="#FFB27D"></path> <path d="M2153.98 596.51C2153.98 596.51 2167.75 633.26 2188.88 638.694C2210.01 644.128 2219.17 638.466 2219.17 638.466C2219.17 638.466 2202.97 625.591 2199.6 603.114C2199.6 603.114 2164.37 579.018 2153.98 596.51Z" fill="#96322A"></path> <path d="M2157.39 599.493C2157.39 599.493 2147.11 607.698 2144.6 615.675C2142.09 623.652 2140.97 640.072 2136.18 639.514C2136.18 639.514 2125.81 614.535 2137.47 600.405C2149.83 585.421 2157.39 599.493 2157.39 599.493Z" fill="#96322A"></path> <path d="M2072.99 895.202L2049.24 967.616L2062.79 973.049L2102.06 909.071L2072.99 895.202Z" fill="#FFB27D"></path> <path d="M2137.03 706.939C2137.03 706.939 2109.02 718.053 2100.92 735.379C2092.81 752.705 2080.54 868.926 2075.65 880.861C2070.76 892.796 2067.09 902.246 2067.09 902.246C2067.09 902.246 2081.21 914.144 2095.41 915.019C2109.61 915.896 2137.03 706.939 2137.03 706.939Z" fill="#F99043"></path> <path d="M2160.13 696.954C2160.13 696.954 2131.04 768.83 2130.18 783.377C2129.33 797.923 2126.76 1021.25 2126.76 1021.25C2126.76 1021.25 2128.47 1031.52 2108.79 1027.24C2089.11 1022.96 2083.98 1018.68 2083.98 1018.68C2083.98 1018.68 2102.8 880.921 2097.67 833.004C2092.53 785.087 2137.03 706.938 2137.03 706.938L2160.13 696.954Z" fill="#F99043"></path> <path d="M2027.96 1360.28L2045.01 1360.8C2048.05 1360.89 2050.97 1359.58 2052.91 1357.23C2064.37 1343.35 2104.33 1291.41 2128.33 1215.05C2128.99 1212.97 2129.68 1210.85 2130.42 1208.71C2145.87 1163.65 2177.91 1107.1 2194.79 1055.9C2197.47 1047.75 2199.89 1040.07 2202.05 1032.81C2202.75 1030.48 2203.42 1028.2 2204.06 1025.95L2186.11 1012.32C2186.11 1012.32 2132.21 1099.6 2115.53 1181.73C2101.03 1253.08 2042.99 1338.93 2027.96 1360.28Z" fill="#1E3D70"></path> <path d="M2184.24 1189.38C2183.95 1227.17 2185.74 1311.39 2190.34 1352.56C2190.76 1356.33 2193.94 1359.17 2197.74 1359.17H2210.46C2215.82 1359.17 2219.83 1359.13 2222.49 1359.09C2224.8 1359.06 2226.77 1357.41 2227.21 1355.14C2239.86 1290.78 2248.91 1237.3 2255.54 1191.1C2261.09 1152.42 2266.01 1119.26 2269.8 1090.72C2273.62 1061.99 2276.27 1037.94 2277.22 1017.62C2277.37 1014.42 2277.48 1011.3 2277.54 1008.28C2277.6 1005.25 2277.62 1002.3 2277.59 999.429L2172.26 989.161C2173.58 1059.15 2184.41 1166.17 2184.24 1189.38Z" fill="#2A4E96"></path> <path d="M2210.46 1359.17C2215.27 1359.17 2219 1359.14 2221.64 1359.11C2224.44 1359.07 2226.83 1357.06 2227.38 1354.31C2239.94 1290.32 2248.94 1237.1 2255.54 1191.1C2261.09 1152.42 2266.01 1119.26 2269.8 1090.72C2273.62 1061.99 2276.27 1037.94 2277.22 1017.62L2238.57 1040.35C2238.57 1040.35 2263.24 1049.06 2253.83 1114.94C2244.42 1180.83 2223.56 1349.85 2210.46 1359.17Z" fill="#1E3D70"></path> <path d="M2205.48 1016.97C2205.48 1016.97 2212.9 1043.78 2238.57 1040.36C2264.24 1036.93 2300.74 1021.53 2300.74 1021.53C2300.74 1021.53 2289.77 986.87 2276.13 941.332C2259.62 886.202 2239.18 815.131 2229.54 770.304C2226.84 757.742 2224.99 747.252 2224.31 739.739L2203.01 698.42C2203.01 698.42 2171.26 769.688 2169.54 787.656C2167.83 805.624 2205.48 1016.97 2205.48 1016.97Z" fill="#F99043"></path> <path d="M2231.11 784.978L2203.01 698.419C2203.08 698.454 2238.51 708.959 2256.32 717.962C2256.32 717.962 2267.46 732.321 2274.35 765.449C2274.35 765.449 2281.63 844.984 2265.38 874.076C2265.38 874.076 2214.04 884.344 2131.9 856.107V837.283C2131.9 837.283 2221.74 841.989 2240.14 844.128L2231.11 784.978Z" fill="#FFB27D"></path> <path d="M2206.62 825.304C2207.77 854.397 2214.61 910.869 2275.65 941.1C2275.81 941.177 2275.97 941.263 2276.13 941.332C2259.62 886.202 2239.18 815.131 2229.54 770.304C2218.33 787.056 2206 809.286 2206.62 825.304Z" fill="#ED7D2B"></path> <path d="M2203.01 698.419C2203.01 698.419 2255.11 702.09 2267.66 730.041C2280.21 757.992 2284.2 850.974 2268.23 878.354C2268.23 878.354 2246.24 884.617 2207.35 877.344C2206.87 877.255 2206.39 877.163 2205.91 877.071C2205.91 877.071 2193.5 846.695 2204.63 840.706C2204.63 840.706 2237.43 842.417 2234 831.578C2230.58 820.741 2203.01 698.419 2203.01 698.419Z" fill="#F99043"></path> <path d="M2072.37 848.914L2073.9 853.847L2159.4 827.25C2159.4 827.25 2160.54 825.951 2159.98 824.227C2159.36 822.322 2157.87 822.318 2157.87 822.318L2072.37 848.914Z" fill="#96322A"></path> <path d="M2066.19 853.575L2072.37 848.914L2073.9 853.847L2066.19 853.575Z" fill="#96322A"></path> <path d="M2052.61 965.637C2052.61 965.637 2030.93 977.622 2028.07 986.754C2025.22 995.887 2027.18 1015.01 2030.62 1014.72C2034.07 1014.44 2039.2 994.174 2042.06 992.747C2044.91 991.32 2048.91 987.043 2048.91 990.181C2048.91 993.319 2046.05 999.026 2047.48 999.882C2048.91 1000.74 2053.47 991.895 2056.61 990.181C2059.75 988.467 2061.07 974.356 2064.12 970.567C2067.17 966.779 2052.61 965.637 2052.61 965.637Z" fill="#FFB27D"></path> <path d="M2131.9 837.283C2131.9 837.283 2112.5 825.338 2104.36 827.175C2096.22 829.013 2075.49 844.032 2085.46 847.284C2095.44 850.536 2103.52 847.124 2107.35 849.486C2111.19 851.848 2114.02 856.166 2131.9 856.107C2149.77 856.049 2131.9 837.283 2131.9 837.283Z" fill="#FFB27D"></path> <path d="M606.5 708.945C603.248 702.674 677.438 680.092 678.613 741.981C678.613 741.981 817.59 738.565 751.232 661.103C728.259 634.286 730.623 612.113 731.312 591.474C732.01 570.831 717.003 510.839 665.562 516.88C665.562 516.88 652.09 511.399 635.278 520.121C597.044 539.955 511.396 731.769 606.5 708.945Z" fill="#163560"></path> <path d="M833.71 778.135C833.71 778.135 842.756 764.364 850.047 764.094C857.338 763.823 870.839 760.043 869.759 762.743C868.679 765.443 860.308 765.714 859.498 767.334C858.688 768.954 871.919 771.385 875.7 771.654C879.481 771.924 888.392 771.654 888.122 773.545C887.852 775.435 872.061 783.266 860.919 782.186C849.777 781.106 836.005 785.426 836.005 785.426L833.71 778.135Z" fill="#FFB27D"></path> <path d="M702.879 782.591C702.879 782.591 707.796 792.328 716.715 803.516C727.465 816.98 744.04 832.534 764.851 835.604C774.791 837.07 784.512 834.931 793.447 830.962C793.471 830.953 793.479 830.953 793.479 830.953C818.754 819.733 837.759 793.932 837.759 793.932C842.215 781.781 834.924 773.542 834.924 773.542C834.924 773.542 783.888 785.021 779.027 782.591C774.167 780.16 745.813 698.479 739.065 688.215C732.309 677.951 709.302 672.621 709.302 672.621L702.879 782.591Z" fill="#99BAEB"></path> <path d="M716.716 803.516C727.466 816.98 744.041 832.534 764.852 835.604C774.792 837.07 784.513 834.931 793.448 830.962C792.46 831.091 767.217 834.21 757.156 816.21C746.892 797.845 735.794 768.682 720.548 778.402C713.97 782.599 714.261 793.025 716.716 803.516Z" fill="#98BAF4"></path> <path d="M512.473 1333.5C512.473 1333.5 496.9 1347.71 499.939 1357.81C502.978 1367.91 517.031 1374.64 518.93 1386.98C520.829 1399.32 528.426 1406.06 535.263 1406.06C542.1 1406.06 567.858 1406.06 567.858 1406.06C567.858 1406.06 572.891 1397.37 560.736 1394.75C548.582 1392.13 543.999 1377.63 544.759 1364.17C545.519 1350.7 543.619 1332.75 543.619 1332.75L517.791 1326.77L512.473 1333.5Z" fill="#163560"></path> <path d="M644.283 1339.53C644.283 1339.53 638.68 1399.74 645.517 1403.1L733.014 1402.93C733.014 1402.93 733.014 1392.83 718.96 1390.58C704.906 1388.34 680.217 1380.11 676.039 1361.78C671.862 1343.46 644.283 1339.53 644.283 1339.53Z" fill="#163560"></path> <path d="M581.931 907.595C599.936 867.215 610.954 855.625 608.85 843.092C607.285 833.764 613.617 669.173 613.617 669.173C615.753 668.511 620.035 667.918 622.378 667.398C629.763 665.758 635.876 660.57 638.42 653.446C641.485 644.863 643.922 632.191 643.864 616.31L646.171 616.764L684.952 624.444C684.952 624.444 684.07 636.649 684.044 648.146C684.044 648.242 684.043 648.337 684.043 648.432C683.996 658.417 690.546 667.23 700.14 670C705.038 671.414 709.3 672.623 709.3 672.623C709.3 672.623 723.541 713.279 726.261 755.045C728.981 796.812 700.366 814.956 726.477 898.419C753.133 983.661 571.984 929.907 581.931 907.595Z" fill="#FFB27D"></path> <path d="M684.951 624.444C684.951 624.444 684.069 636.649 684.043 648.146C662.341 647.534 650.871 627.737 646.17 616.764L684.951 624.444Z" fill="#E8945B"></path> <path d="M692.199 635.33C692.199 635.33 640.854 636.177 640.819 604.194C640.784 572.211 634.133 550.78 666.914 548.887C699.695 546.994 706.078 559.192 708.686 569.864C711.294 580.536 705.554 634.286 692.199 635.33Z" fill="#FFB27D"></path> <path d="M690.298 548.104C690.298 548.104 676.24 585.626 654.665 591.174C633.09 596.722 623.731 590.942 623.731 590.942C623.731 590.942 640.28 577.796 643.714 554.847C643.715 554.847 679.694 530.245 690.298 548.104Z" fill="#163560"></path> <path d="M686.814 551.15C686.814 551.15 697.239 555.047 701.529 562.65C705.725 570.085 709.299 579.932 708.47 592.012C708.47 592.012 719.061 566.508 707.159 552.081C694.537 536.783 686.814 551.15 686.814 551.15Z" fill="#163560"></path> <path d="M681.027 615.49C681.027 615.49 684.57 620.151 691.658 619.816C697.367 619.545 699.57 614.592 699.57 614.592C699.57 614.592 689.081 612.07 681.027 615.49Z" fill="#EEF5FF"></path> <path d="M576.975 741.981C576.975 741.981 575.671 760.364 576.975 782.423C577.842 797.045 592.633 816.631 594.731 821.476C599.997 833.627 605.935 835.604 605.935 835.604L651.876 846.864L668.029 850.817L718.967 835.604C718.967 835.604 742.168 770.844 732.852 734.39C723.536 697.936 709.302 672.62 709.302 672.62C709.302 672.62 667.736 713.319 613.614 669.169L576.975 741.981Z" fill="#99BAEB"></path> <path d="M590.422 788.391C591.289 803.013 592.633 816.631 594.732 821.476C599.998 833.627 605.936 835.604 605.936 835.604L651.877 846.864L671.83 840.999C671.83 840.999 605.224 830.905 612.604 773.6L590.422 788.391Z" fill="#F2CCAA"></path> <path d="M715.728 845.433C715.728 845.433 740.954 923.953 742.574 950.686C744.194 977.419 694.353 1330.45 692.348 1342.77C690.458 1354.38 676.039 1361.79 676.039 1361.79C676.039 1361.79 669.408 1365.7 659.944 1363.03C646.813 1359.32 642.662 1354.88 642.662 1354.88C642.662 1354.88 623.028 1103.1 635.179 1013.15C647.329 923.213 647.472 845.433 647.472 845.433H715.728V845.433Z" fill="#ED7D2B"></path> <path d="M608.85 843.092C608.85 843.092 570.371 894.722 566.783 929.623C563.196 964.524 561.155 1087.12 553.512 1121.14C545.87 1155.17 517.79 1220.64 517.79 1326.77C517.79 1326.77 520.709 1332.85 529.721 1336.09C532.603 1337.12 536.464 1338.13 540.213 1338.99C547.646 1340.69 555.271 1337.06 558.663 1330.23C577.647 1292.01 638.119 1168.73 641.219 1143.14C643.413 1125.03 662.507 1005.17 704.156 934.846C714.155 917.961 698.02 850.815 698.02 850.815L608.85 843.092Z" fill="#F99043"></path> <path d="M682.168 616.345C682.168 616.345 683.055 620.114 692.432 619.533C692.432 619.533 700.304 619.046 700.063 614.904C700.063 614.904 692.43 611.956 682.168 616.345Z" fill="white"></path> <path d="M719.758 833.312C719.758 833.312 709.631 841.323 689.513 841.728C665.483 842.212 605.938 835.602 605.938 835.602C605.938 835.602 603.292 842.994 603.4 850.799C603.4 850.799 676.124 869.143 718.26 853.478C718.26 853.478 723.695 843.252 719.758 833.312Z" fill="#163560"></path> <path d="M684.313 850.026C684.313 843.182 689.232 837.616 695.279 837.616C701.325 837.616 706.243 843.182 706.243 850.026C706.243 856.87 701.325 862.436 695.279 862.436C689.232 862.436 684.313 856.869 684.313 850.026ZM687.948 850.026C687.948 854.866 691.237 858.802 695.279 858.802C699.322 858.802 702.609 854.865 702.609 850.026C702.609 845.187 699.321 841.25 695.279 841.25C691.237 841.249 687.948 845.187 687.948 850.026Z" fill="white"></path> <path d="M527.627 847.481L602.139 912.359L690.948 810.364L616.437 745.486L527.627 847.481Z" fill="#B5453C"></path> <path d="M622.743 847.753C622.743 847.753 650.042 850.945 649.957 857.426C649.872 863.907 643.154 877.219 639.783 877.811C636.411 878.403 617.566 859.808 617.566 859.808L622.743 847.753Z" fill="#FFB27D"></path> <path d="M613.615 669.169C613.615 669.169 577.168 671.725 563.197 705.687C549.225 739.65 522.718 796.674 522.718 806.267C522.718 815.861 537.525 845.432 617.049 862.435C617.049 862.435 625.275 853.783 624.776 846.941C624.776 846.941 575.135 804.302 575.268 799.319C575.52 789.893 583.406 777.449 626.99 733.852C638.837 721.999 613.615 669.169 613.615 669.169Z" fill="#99BAEB"></path> <path d="M1016.3 1404.2H1015.95C1013.92 1404.2 1012.28 1402.52 1012.33 1400.49L1017.83 1162.08L1034.03 1160.19L1020.21 1400.5C1020.09 1402.58 1018.38 1404.2 1016.3 1404.2Z" fill="#B0D4FF"></path> <path d="M921.88 1404.2H921.534C919.498 1404.2 917.86 1402.52 917.907 1400.49L923.408 1162.08L939.611 1160.19L925.794 1400.5C925.674 1402.58 923.957 1404.2 921.88 1404.2Z" fill="#5088CB"></path> <path d="M1182.42 1404.2H1182.77C1184.8 1404.2 1186.44 1402.52 1186.4 1400.49L1180.89 1162.08L1164.69 1160.19L1178.51 1400.5C1178.63 1402.58 1180.34 1404.2 1182.42 1404.2Z" fill="#B0D4FF"></path> <path d="M911.144 1147.29V983.928C911.144 955.183 934.447 931.879 963.193 931.879H1080.89C1109.64 931.879 1132.94 955.183 1132.94 983.928V1153.54L911.144 1147.29Z" fill="#B0D4FF"></path> <path d="M1154.03 1173.09H926.773C918.142 1173.09 911.144 1166.09 911.144 1157.46V1147.29H1154.03V1173.09Z" fill="#5088CB"></path> <path d="M1181.27 1173.09H1009.33C1002.95 1173.09 997.778 1167.91 997.778 1161.53V1158.85C997.778 1152.47 1002.95 1147.29 1009.33 1147.29H1181.27C1187.65 1147.29 1192.82 1152.47 1192.82 1158.85V1161.53C1192.82 1167.91 1187.65 1173.09 1181.27 1173.09Z" fill="#B0D4FF"></path> <path d="M1174.59 1106.59C1157.73 1135.94 1136.52 1147.26 1136.52 1147.26H1048.29C1048.29 1147.26 1187.45 1084.2 1174.59 1106.59Z" fill="#163560"></path> <path d="M1106.83 1333.65C1104.53 1336.29 1104.23 1339.23 1105.37 1342.38C1105.37 1342.39 1105.38 1342.41 1105.39 1342.42C1107.5 1348.23 1114.45 1354.73 1122.53 1361.21C1123.56 1362.05 1124.48 1362.81 1125.28 1363.51C1125.49 1363.69 1125.7 1363.87 1125.89 1364.06C1126.06 1364.2 1126.21 1364.35 1126.37 1364.49C1133.9 1371.43 1131.07 1373.02 1144.59 1387.11C1160.02 1403.16 1170.64 1403.45 1173.66 1401.99C1176.22 1400.74 1171.03 1392.23 1165.27 1382.66C1164.99 1382.2 1164.72 1381.73 1164.43 1381.26C1163.67 1379.99 1162.91 1378.7 1162.14 1377.42C1155.4 1365.9 1157.13 1360.5 1158.73 1343.36C1160.03 1329.44 1180.4 1265.56 1180.4 1265.56L1150.83 1260.47C1150.83 1260.47 1141.93 1311.33 1132.12 1319.17C1126.88 1323.34 1121 1323.39 1115.96 1326.49C1115.61 1326.7 1115.26 1326.92 1114.91 1327.15C1112.05 1329.05 1109.13 1331.01 1106.83 1333.65Z" fill="#FFB27D"></path> <path d="M1106.83 1333.65C1104.53 1336.29 1104.23 1339.23 1105.37 1342.38C1105.37 1342.39 1105.38 1342.41 1105.39 1342.42C1107.97 1348.23 1114.75 1354.69 1122.56 1361.15C1123.58 1362 1124.47 1362.78 1125.28 1363.51C1125.49 1363.69 1125.7 1363.87 1125.89 1364.06C1126.06 1364.2 1126.21 1364.35 1126.37 1364.49C1133.9 1371.43 1131.07 1373.02 1144.59 1387.11C1160.02 1403.16 1170.64 1403.45 1173.66 1401.98C1176.22 1400.74 1171.03 1392.23 1165.27 1382.66C1162.27 1381.56 1148.32 1375.89 1137.77 1362.39C1128.48 1350.54 1122.29 1335.31 1115.96 1326.49C1115.61 1326.7 1115.26 1326.93 1114.91 1327.15C1112.05 1329.05 1109.13 1331.01 1106.83 1333.65Z" fill="#163560"></path> <path d="M1345.2 1315.19C1347.03 1324.31 1360.04 1322.79 1374.57 1319.24C1389.1 1315.69 1385.65 1319.91 1406.33 1317.62C1427.01 1315.33 1433.28 1307.62 1433.91 1304.55C1434.47 1301.82 1424.25 1300.85 1413.29 1299.59C1411.91 1299.44 1410.53 1299.27 1409.14 1299.1C1396.77 1297.54 1387.7 1289.56 1376.46 1283C1365.81 1276.78 1349.92 1251.47 1349.92 1251.47L1321.56 1253.72C1321.56 1253.72 1336.44 1276.33 1342.2 1286.16C1345.59 1291.94 1345.41 1299.58 1344.98 1305.49C1344.77 1308.69 1344.56 1311.97 1345.2 1315.19Z" fill="#FFB27D"></path> <path d="M1374.57 1319.24C1389.1 1315.69 1385.65 1319.91 1406.33 1317.62C1427.01 1315.33 1433.28 1307.62 1433.91 1304.54C1434.47 1301.82 1424.25 1300.85 1413.29 1299.59L1413.19 1299.8C1413.19 1299.8 1400.79 1308.6 1383.57 1309.01C1369.54 1309.35 1354.67 1305.33 1344.98 1305.49C1344.76 1308.69 1344.56 1311.97 1345.2 1315.19C1347.03 1324.31 1360.04 1322.79 1374.57 1319.24Z" fill="#163560"></path> <path d="M1236.5 1133.82L1209.99 1205.17L1175.37 1298.33C1175.37 1298.33 1165.97 1299.24 1156.98 1296.65C1148.69 1294.26 1139.19 1288 1139.19 1288C1139.19 1288 1148.8 1187.96 1166.73 1130.54C1171.33 1115.8 1176.48 1103.88 1182.16 1097.17C1209.96 1064.32 1236.5 1133.82 1236.5 1133.82Z" fill="#163560"></path> <path d="M1209.54 1020.5C1192.17 1014.9 1142.63 1022.09 1092.86 1031.84L1082.44 1014.65L974.933 1006.25C974.933 1006.25 939.459 1084.92 958.88 1135.05C961.734 1142.41 967.406 1147.14 977.074 1147.29C977.078 1147.3 978.64 1147.29 978.644 1147.29C978.644 1147.29 1042.63 1147.26 1063.4 1147.26C1116.87 1147.26 1176.55 1110.51 1184.27 1108.96C1196.91 1106.44 1201.96 1131.71 1214.6 1158.25C1227.23 1184.79 1333.39 1275.77 1333.39 1275.77C1333.39 1275.77 1349.7 1275.93 1356.44 1273.41C1363.69 1270.69 1366.34 1267.16 1366.34 1267.16C1366.34 1267.16 1248.72 1033.14 1209.54 1020.5Z" fill="#2B478B"></path> <path d="M1078.21 701.623C1064.44 694.391 1043.48 693.413 1040.08 692.955C999.34 687.481 974.823 746.675 973.381 764.611C970.723 797.671 953.234 802.712 928.617 823.417C879.258 864.932 893.732 913.172 920.722 931.097C936.916 941.852 965.46 931.096 965.46 931.096C965.863 931.378 1043.52 887.682 1081.8 866.604C1139.19 858.446 1113.3 720.051 1078.21 701.623Z" fill="#163560"></path> <path d="M1049.72 848.662C1049.89 848.771 1030.88 855.259 1018.18 849.632C1006.22 844.349 997.165 824.682 997.342 824.671C1002.78 824.42 1008.75 819.666 1013.35 788.47L1015.66 789.301L1054.6 803.311C1054.6 803.311 1051.78 815.803 1049.95 827.698C1048.42 837.684 1047.59 847.25 1049.72 848.662Z" fill="#FFB27D"></path> <path d="M1054.6 803.311C1054.6 803.311 1051.78 815.803 1049.95 827.698C1027.59 823.673 1018.81 801.391 1015.66 789.302L1054.6 803.311Z" fill="#ED975D"></path> <path d="M1060.4 815.71C1060.4 815.71 1007.13 808.56 1012.09 775.455C1017.05 742.352 1013.52 719.133 1047.74 722.298C1081.96 725.463 1086.66 739.084 1087.69 750.536C1088.72 761.99 1074.38 816.717 1060.4 815.71Z" fill="#FFB27D"></path> <path d="M1085.75 732.391C1085.75 732.391 1051.65 761.777 1028.46 764.146C1005.26 766.515 996.481 759.07 996.481 759.07C996.481 759.07 1010.15 747.718 1018.38 729.399C1020.81 724 1025.93 720.295 1031.83 719.786C1048.39 718.356 1079.78 717.703 1085.75 732.391Z" fill="#163560"></path> <path d="M1064.44 729.759C1064.44 729.759 1075.84 740.789 1079.44 748.97C1082.9 756.865 1083.94 775.746 1081.18 783.246C1081.18 783.246 1098.95 748.686 1088.89 731.894C1078.22 714.089 1064.44 729.759 1064.44 729.759Z" fill="#163560"></path> <path d="M1094.57 927.132C1092.96 1034.96 1094.13 1012.43 1082.34 1022.66C1079.49 1025.12 1071.5 1026.59 1060.99 1027.29C1027.92 1029.48 969.802 1024.03 967.591 1017.92C959.964 996.781 965.35 990.213 958.987 957.844C958.324 954.402 957.503 950.675 956.539 946.617C951.234 924.385 946.069 916.821 964.891 881.104C981.959 848.75 999.691 822.493 1001.29 823.44C1046.32 850.172 1049.95 827.703 1049.95 827.703C1049.95 827.703 1095.36 874.536 1094.57 927.132Z" fill="white"></path> <path d="M1209.99 1205.17L1175.37 1298.33C1175.37 1298.33 1165.97 1299.24 1156.98 1296.65C1148.7 1294.26 1139.19 1287.99 1139.19 1287.99C1139.19 1287.99 1148.8 1187.96 1166.74 1130.54L1209.99 1205.17Z" fill="#2B478B"></path> <path d="M1049.95 827.698C1049.95 827.698 1096.29 835.554 1101.73 855.505C1107.17 875.455 1139.19 992.74 1139.19 992.74C1139.19 992.74 1115.64 996.972 1104.75 986.091C1093.87 975.208 1066.89 885.128 1066.89 885.128L1049.95 827.698Z" fill="white"></path> <path d="M1060.99 1027.29C1027.92 1029.48 969.802 1024.03 967.591 1017.92C959.964 996.781 965.349 990.213 958.986 957.844L974.933 912.938C974.933 912.938 972.296 962.944 987.044 976.097C1001.78 989.249 1047.42 1001.49 1054.59 1012.48C1058.05 1017.75 1060.33 1023.04 1060.99 1027.29Z" fill="#EBF3FF"></path> <path d="M1023.11 1006.25C1023.11 1006.25 1055.73 998.991 1060.99 1001.89C1066.25 1004.78 1079.11 1015.32 1080.73 1018.99C1082.34 1022.66 1069.01 1016.21 1064.67 1015.05C1061.87 1014.29 1054.47 1016.86 1050.82 1018.08C1035.42 1023.21 1025.99 1020.57 1025.99 1020.57L1023.11 1006.25Z" fill="#FFB27D"></path> <path d="M1001.26 823.417C1001.26 823.417 957.459 826.114 942.297 847.262C920.953 877.032 878.612 1003.9 902.879 1020.82C930.206 1039.88 1027.25 1025.81 1027.25 1025.81C1027.25 1025.81 1030.48 1010.71 1025.99 1003.41C1021.49 996.107 948.476 984.312 945.106 980.942C941.736 977.572 987.232 915.225 987.232 905.116C987.231 895.005 1001.26 823.417 1001.26 823.417Z" fill="white"></path> <path d="M1062.57 1010.97C1062.57 1010.97 1069.4 1019.78 1071.64 1020.83C1073.88 1021.89 1075.33 1021.62 1075.33 1021.62L1070.73 1013.33L1062.57 1010.97Z" fill="#FFB27D"></path> <path d="M1060.99 1001.89L1080.86 1011.54C1080.86 1011.54 1080.02 1012.92 1077.57 1012.81C1075.12 1012.7 1068.95 1010.44 1068.95 1010.44L1060.99 1001.89Z" fill="#FFB27D"></path> <path d="M1071.64 1034.34H1228.83L1276.12 916.754H1119.17L1071.64 1034.34Z" fill="#F99043"></path> <path d="M1230.67 1029.76H1023.11V1034.34H1228.83L1230.67 1029.76Z" fill="#ED7D2B"></path> <path d="M1189.15 975.547C1190.34 971.413 1187.95 968.063 1183.81 968.063C1179.68 968.063 1175.37 971.414 1174.18 975.547C1173 979.68 1175.39 983.031 1179.52 983.031C1183.66 983.032 1187.97 979.68 1189.15 975.547Z" fill="white"></path> <path d="M1892.62 1408.55H1893.08C1895.77 1408.55 1897.94 1406.2 1897.88 1403.35L1890.6 1069.55L1869.18 1066.91L1887.45 1403.38C1887.61 1406.28 1889.88 1408.55 1892.62 1408.55Z" fill="#407ABE"></path> <path d="M1023.89 1408.55H1023.43C1020.73 1408.55 1018.57 1406.2 1018.63 1403.35L1025.91 1069.55L1047.33 1066.91L1029.06 1403.38C1028.9 1406.28 1026.63 1408.55 1023.89 1408.55Z" fill="#407ABE"></path> <path d="M1918.43 1075.69H1001.68C994.168 1075.69 988.08 1069.61 988.08 1062.1V1049.01C988.08 1041.5 994.168 1035.42 1001.68 1035.42H1918.43C1925.94 1035.42 1932.02 1041.5 1932.02 1049.01V1062.1C1932.02 1069.61 1925.94 1075.69 1918.43 1075.69Z" fill="#407ABE"></path> <path d="M801.887 463.32C798.424 377.611 870.262 339.533 943.717 339.533C1017.17 339.533 1097.11 358.565 1104.03 472.534C1108.49 545.853 1069.4 590.968 956.855 590.968C918.898 590.968 889.398 584.981 866.803 574.304L810.544 624.295L838.191 555.195C813.7 532.425 803.381 500.305 801.887 463.32Z" fill="#E1ECF7"></path> <path d="M2471.39 1408.19C2471.39 1408.19 2473.45 1392.08 2478.24 1382.51C2483.03 1372.94 2513.49 1379.03 2513.49 1379.03C2513.49 1379.03 2519.58 1384.25 2520.88 1408.62L2471.39 1408.19Z" fill="#163560"></path> <path d="M2367.6 1407.97C2374.76 1403.6 2370.69 1371.01 2370.69 1371.01C2370.69 1371.01 2337.34 1344.33 2332.75 1364.75C2328.17 1385.18 2301.07 1394.35 2285.64 1396.86C2275 1398.58 2271.7 1404.48 2270.68 1407.97H2367.6V1407.97Z" fill="#163560"></path> <path d="M2436.69 1170.93C2435.33 1178.4 2434.47 1184.54 2434.24 1188.94C2431.14 1249.42 2383.33 1387.69 2374.78 1390.92C2361.55 1395.91 2340.72 1385.3 2329.82 1381.82C2325.3 1380.38 2322.25 1375.82 2323.25 1371.2C2346.93 1262.37 2355.63 1105.64 2358.8 1012.86C2360.4 966.124 2368.42 933.84 2368.42 933.84C2368.42 933.84 2485.02 902.731 2485.71 942.084C2486.32 976.908 2447.08 1113.48 2436.69 1170.93Z" fill="#213F7A"></path> <path d="M2436.69 1170.93L2358.8 1012.86C2360.4 966.125 2368.42 933.841 2368.42 933.841C2368.42 933.841 2485.02 902.732 2485.71 942.085C2486.32 976.908 2447.09 1113.48 2436.69 1170.93Z" fill="#163560"></path> <path d="M2410.75 942.222L2472.38 1388.96C2472.38 1388.96 2499.45 1395.48 2520.5 1390.26C2520.5 1390.26 2538.55 1152.67 2537.05 1095.23C2535.54 1037.79 2550 941.528 2533.75 930.913C2517.5 920.296 2410.75 942.222 2410.75 942.222Z" fill="#213F7A"></path> <path d="M2545.76 934.779C2546.06 938.815 2543.47 942.487 2539.59 943.615C2530.99 946.11 2521.08 947.846 2501.96 951.807C2484 955.537 2459.84 958.839 2430.15 959.022C2382.94 959.323 2365.06 943.049 2365.06 943.049C2363.03 943.086 2366.14 933.204 2368.94 886.221C2369.89 870.305 2370.8 850.132 2371.46 824.635C2372.06 801.693 2372.46 774.438 2372.5 742.103C2372.55 703.207 2432.75 661.361 2433.86 661.361L2433.88 661.379C2433.88 666.98 2442.7 677.314 2456.3 678.206C2472.43 679.261 2492.23 671.231 2492.23 661.938C2492.23 661.844 2521.4 708.601 2531.76 758.421C2537 783.497 2534.88 782.825 2545.76 934.779Z" fill="#99BAEB"></path> <path d="M2433.87 661.364C2433.87 661.364 2377.88 660.889 2364.41 679.785C2350.94 698.682 2321.39 800.333 2336.81 834.158C2352.23 867.982 2381.07 820.166 2397.08 799.447C2413.09 778.729 2433.87 661.364 2433.87 661.364Z" fill="#99BAEB"></path> <path d="M2433.29 652.819L2433.33 658.606C2433.33 658.606 2431.75 676.705 2454.04 679.348C2476.32 681.998 2492.86 675.968 2492.26 662.001C2490.25 651.187 2488.39 640.083 2488.24 631.135C2488.19 627.81 2488.42 624.281 2489.04 620.297L2445.85 619.435L2433.13 621.513L2433.29 652.819Z" fill="#FFB27D"></path> <path d="M2433.13 621.513L2433.29 652.819C2437.88 654.952 2443.06 656.254 2448.86 656.254C2468.71 656.254 2481.54 641.699 2488.24 631.136C2488.19 627.811 2488.42 624.282 2489.04 620.298L2445.85 619.436L2433.13 621.513Z" fill="#E2915A"></path> <path d="M2492.35 613.348C2487.34 640.314 2452.54 639.429 2437.5 637.734C2433.27 637.263 2430.61 636.723 2430.61 636.723C2425.84 635.449 2423.17 627.933 2421.94 618.088C2419.48 598.606 2422.58 570.007 2425.87 562.692C2430.83 551.686 2440.16 539.781 2475.2 548.371C2510.25 556.967 2498.78 578.797 2492.35 613.348Z" fill="#FFB27D"></path> <path d="M2376.62 737.119C2376.62 737.119 2354.97 784.937 2355.6 799.27C2355.6 799.27 2366.32 798.903 2376.62 801.973C2393.54 807.02 2376.62 737.119 2376.62 737.119Z" fill="#98BAF4"></path> <path d="M2415.12 537.025C2415.12 537.025 2430.55 535.838 2448.74 527.929C2463.5 521.509 2482.13 528.579 2488.18 531.765C2488.02 530.79 2487.62 529.46 2486.7 528.127C2486.7 528.127 2489.42 530.052 2489.82 532.743C2490.1 532.949 2490.22 533.091 2490.15 533.139C2490.15 533.139 2493.23 532.577 2495.21 533.466C2495.21 533.466 2493.82 533.268 2493.33 534.158C2493.27 534.252 2493.2 534.332 2493.1 534.403C2516.14 545.532 2518.26 581.933 2510.85 590.356C2501.94 600.49 2488.47 623.419 2488.47 623.419C2488.47 623.419 2487.34 617.919 2488.96 609.001C2490.59 600.084 2482.88 600.084 2473.16 596.03C2463.43 591.976 2471.53 580.627 2463.02 573.736C2454.51 566.845 2423.3 570.899 2423.7 565.629C2412.12 561.409 2415.12 538.211 2415.12 537.025Z" fill="#163560"></path> <path d="M2499.4 826.695C2490.26 863.399 2391.41 882.367 2368.94 886.221C2369.89 870.305 2370.8 850.132 2371.46 824.635L2499.4 826.695Z" fill="#98BAF4"></path> <path d="M2477.7 838.623C2478.65 838.623 2499.68 835.484 2503.45 833.6C2507.21 831.716 2524.44 807.23 2513.16 800.952C2501.88 794.673 2471.59 819.787 2471.59 819.787L2477.7 838.623Z" fill="#FFB27D"></path> <path d="M2349.77 845.9C2349.77 845.9 2431.12 850.313 2485.71 838.624C2485.71 838.624 2487.09 822.853 2469.93 815.848C2469.93 815.848 2384.85 797.814 2364.41 802.837C2343.97 807.859 2349.77 845.9 2349.77 845.9Z" fill="#99BAEB"></path> <path d="M2536.59 782.06C2519.71 802.416 2497.64 819.035 2473.31 822.927L2473.3 822.921C2473.1 822.613 2465.94 811.738 2467.28 795.753C2467.9 788.357 2470.34 779.862 2476.14 770.815C2477.92 768.034 2479.51 764.782 2480.92 761.171C2494.21 727.273 2492.23 661.938 2492.23 661.938C2492.23 661.938 2548.65 667.846 2566.23 692.961C2577 708.343 2563.27 749.876 2536.59 782.06Z" fill="#99BAEB"></path> <path d="M2437.5 637.734C2433.27 637.263 2430.61 636.723 2430.61 636.723C2425.84 635.449 2423.17 627.933 2421.94 618.088C2430.88 620.292 2434.98 627.204 2436.69 630.149C2437.46 631.474 2437.62 634.444 2437.5 637.734Z" fill="#E2915A"></path> <path d="M2414.77 652.987C2414.77 652.987 2395.29 620.834 2410.44 619.435C2425.59 618.036 2431.68 628.291 2433.87 632.058C2436.06 635.825 2433.3 652.818 2433.3 652.818L2414.77 652.987Z" fill="#FFB27D"></path> <path d="M2489.04 794.673C2488.44 798.748 2487.22 802.496 2485.72 805.837C2480.96 816.403 2473.31 822.927 2473.31 822.927L2473.3 822.921C2422.7 800.079 2412.46 721.641 2410.74 678.545C2410.05 661.222 2410.74 649.607 2410.74 649.607C2433.57 642.047 2439.99 655.182 2439.99 655.182C2439.99 655.182 2466.94 719.28 2480.92 761.171C2486.27 777.2 2489.72 789.984 2489.04 794.673Z" fill="#99BAEB"></path> <path d="M2536.59 782.06C2519.71 802.416 2497.64 819.035 2473.31 822.927L2473.3 822.921C2422.7 800.079 2412.46 721.641 2410.74 678.545C2410.74 678.545 2434.69 765.397 2467.28 795.753C2473.17 801.247 2479.35 804.889 2485.72 805.837C2485.72 805.837 2526.82 794.222 2535.44 783.284C2536.05 782.499 2536.43 782.11 2536.59 782.06Z" fill="#98BAF4"></path> <path d="M1614.88 1035.42H1457.69L1410.4 917.829H1567.35L1614.88 1035.42Z" fill="#2B478B"></path> <path d="M1455.85 1030.83H1663.41V1035.42H1457.69L1455.85 1030.83Z" fill="#2B478B"></path> <path d="M1497.37 976.622C1496.18 972.488 1498.57 969.138 1502.71 969.138C1506.84 969.138 1511.15 972.489 1512.34 976.622C1513.52 980.756 1511.13 984.106 1507 984.106C1502.86 984.107 1498.55 980.756 1497.37 976.622Z" fill="white"></path> <path d="M2890.03 1405.57V1406.57C2890.03 1408.17 2888.55 1409.49 2886.76 1409.49H3.275C1.479 1409.49 0 1408.17 0 1406.57V1405.57C0 1403.97 1.479 1402.66 3.275 1402.66H2886.76C2888.55 1402.66 2890.03 1403.97 2890.03 1405.57Z" fill="#2E3552"></path> </g> <defs> <clipPath id="clip0"> <rect width="2890.03" height="1409.49" fill="white"></rect> </clipPath> </defs> </svg> 