<?xml version="1.0" encoding="UTF-8"?>
<svg xmlns="http://www.w3.org/2000/svg" xmlns:xlink="http://www.w3.org/1999/xlink" viewBox="0 0 144 144" width="144px" height="144px">
<g id="surface1135887">
<path style=" stroke:none;fill-rule:nonzero;fill:rgb(60.784316%,34.901962%,71.372551%);fill-opacity:1;" d="M 125.214844 46.769531 L 122.863281 35.539062 L 105.414062 54 L 90 54 L 90 38.578125 L 108.46875 21.046875 L 97.207031 18.730469 C 94.855469 18.246094 92.425781 18 90 18 C 70.144531 18 54 34.300781 54 54.335938 C 54 56.855469 54.304688 59.40625 54.917969 62.046875 L 17.632812 98.664062 C 10.121094 106.277344 10.121094 118.65625 17.640625 126.269531 C 21.300781 129.960938 26.179688 132 31.386719 132 C 36.589844 132 41.472656 129.960938 45.066406 126.324219 L 82.441406 89.605469 C 85.015625 90 87.523438 90 90 90 C 110.183594 90 126 74.335938 126 54.335938 C 126 51.804688 125.734375 49.253906 125.214844 46.769531 Z M 125.214844 46.769531 "/>
</g>
</svg>
